<?xml version="1.0" encoding="utf-8"?>
<!-- Generator: Adobe Illustrator 26.2.1, SVG Export Plug-In . SVG Version: 6.00 Build 0)  -->
<svg version="1.1" id="Camada_1" xmlns="http://www.w3.org/2000/svg" xmlns:xlink="http://www.w3.org/1999/xlink" x="0px" y="0px"
	 viewBox="0 0 1500 1500" style="enable-background:new 0 0 1500 1500;" xml:space="preserve">
<style type="text/css">
	.st0{fill:rgba(5, 209, 193, 0.06);}
</style>
<path class="st0 curvas-background-header" d="M1026.1,105.8c-124.5,116.9-89.5,266.9-247.6,237.9c-47.2-8.7-85.3-23.6-126.3-18.9
	C535,338,555,506.9,449.8,526.5c-67.1,12.5-172.4,17.7-221.9,135.9c-25.4,60.7-8.9,116.8,9,185.9c37.3,144.2-64.6,224.6-52.3,389.4
	c10.5,140.6,107.8,221,222.9,204.1c132.4-19.5,196.7-123.4,310.9-234.2c100.5-97.6,207.5-33.5,357.6-52.5
	c103.6-13.1,169.6-90.8,201.2-190.2c41.3-129.9,18.4-224.3-5.1-338.3c-26-125.9,18.4-201.5,47.6-278.2
	C1410,111.3,1160.3-20.3,1026.1,105.8z"/>
</svg>
